<?xml version="1.0" encoding="utf-8"?>
<!-- Generator: Adobe Illustrator 19.0.0, SVG Export Plug-In . SVG Version: 6.00 Build 0)  -->
<svg version="1.1" id="Layer_1" xmlns="http://www.w3.org/2000/svg" xmlns:xlink="http://www.w3.org/1999/xlink" x="0px" y="0px"
	 viewBox="0 0 100 100" style="enable-background:new 0 0 100 100;" xml:space="preserve">
<style type="text/css">
	.st0{fill:#246C59;}
	.st1{fill:none;stroke:#FFFFFF;stroke-width:2.7022;stroke-miterlimit:10;}
	.st2{fill:#FFFFFF;}
	.st3{fill:#FFFFFF;stroke:#246C59;stroke-miterlimit:10;}
</style>
<path id="XMLID_9_" class="st0" d="M50,1C22.9,1,1,23,1,50c0,27.1,22,49,49,49c27.1,0,49-22,49-49C99,23,77.1,1,50,1z M95.5,49.9
	h-3.1H95.5z"/>
<g id="XMLID_2_">
	<path id="XMLID_1_" class="st1" d="M92.7,43.5C89.5,22.7,71.6,6.8,50,6.8S10.5,22.7,7.3,43.5"/>
</g>
<g id="XMLID_3_">
	<path id="XMLID_4_" class="st1" d="M92.7,55.8c-3.2,20.8-21,36.7-42.7,36.7S10.5,76.6,7.3,55.8"/>
</g>
<g id="XMLID_12_">
	<path id="XMLID_6_" class="st2" d="M33,19.4h36.2c0,0,0.6-5-2.7-5c-3.3,0-30.5,0-30.5,0S33,14.6,33,19.4z"/>
	<rect id="XMLID_7_" x="43.7" y="18.5" class="st2" width="5.1" height="62.5"/>
	<rect id="XMLID_11_" x="50.5" y="18.5" class="st2" width="5.1" height="62.5"/>
	<g id="XMLID_10_">
		<g id="XMLID_704_">
			<path id="XMLID_705_" class="st3" d="M28.7,60l10.1-1c0.6,3.4,1.8,5.9,3.7,7.4c1.9,1.6,4.3,2.4,7.5,2.4c3.3,0,5.8-0.7,7.5-2.1
				s2.5-3.1,2.5-4.9c0-1.2-0.4-2.2-1.1-3.1c-0.7-0.9-2-1.6-3.7-2.2c-1.2-0.4-4-1.2-8.3-2.2c-5.5-1.4-9.4-3.1-11.7-5.1
				c-3.1-2.8-4.7-6.3-4.7-10.3c0-2.6,0.7-5,2.2-7.3c1.5-2.3,3.6-4,6.4-5.2c2.8-1.2,6.1-1.8,10.1-1.8c6.4,0,11.3,1.4,14.5,4.2
				c3.2,2.8,5,6.6,5.1,11.3l-10.3,0.5c-0.4-2.6-1.4-4.5-2.8-5.7c-1.5-1.2-3.6-1.7-6.5-1.7c-3,0-5.4,0.6-7.1,1.9
				c-1.1,0.8-1.6,1.9-1.6,3.2c0,1.2,0.5,2.2,1.5,3.1c1.3,1.1,4.5,2.2,9.5,3.4c5,1.2,8.8,2.4,11.2,3.7c2.4,1.3,4.3,3,5.7,5.2
				s2,4.9,2,8.2c0,2.9-0.8,5.7-2.4,8.2c-1.6,2.6-3.9,4.5-6.9,5.7c-3,1.2-6.7,1.9-11.1,1.9c-6.5,0-11.4-1.5-14.9-4.5
				C31.5,70.1,29.4,65.7,28.7,60z"/>
		</g>
	</g>
</g>
<g id="XMLID_653_">
</g>
<g id="XMLID_656_">
</g>
<g id="XMLID_670_">
</g>
<g id="XMLID_677_">
</g>
<g id="XMLID_678_">
</g>
<g id="XMLID_679_">
</g>
</svg>
