<svg version="1.0" xmlns="http://www.w3.org/2000/svg"
 width="26.000000pt" height="16.000000pt" viewBox="0 0 395.000000 499.000000"
 preserveAspectRatio="xMidYMid meet">

<g transform="translate(0.000000,499.000000) scale(0.100000,-0.100000)"
fill="#FB5230" stroke="none">
<path d="M97 4959 c-90 -47 -121 -172 -64 -257 36 -55 90 -82 164 -82 70 0
115 21 157 73 28 35 31 46 31 107 0 61 -3 72 -31 107 -17 21 -46 46 -65 55
-47 25 -143 23 -192 -3z"/>
<path d="M662 4964 c-128 -64 -132 -250 -7 -321 l40 -23 550 0 c352 0 564 -4
588 -11 47 -13 106 -63 123 -106 28 -66 14 -145 -34 -196 -58 -62 -56 -61
-432 -67 l-345 -6 -80 -32 c-194 -77 -330 -203 -415 -387 -183 -390 7 -860
408 -1012 134 -50 173 -53 748 -53 576 0 575 0 632 -53 59 -55 80 -161 46
-233 -26 -54 -85 -100 -143 -113 -36 -8 -328 -11 -940 -11 -977 0 -931 3
-1053 -62 -106 -56 -204 -171 -251 -293 -22 -60 -22 -61 -25 -785 -2 -498 1
-741 8 -777 18 -85 75 -186 143 -256 107 -108 237 -161 392 -160 252 1 467
178 520 428 12 55 15 160 15 495 0 487 3 512 76 659 78 158 235 295 399 350
112 36 198 41 793 41 472 0 587 3 632 15 245 65 430 301 430 550 0 142 -65
299 -164 399 -68 69 -126 107 -225 145 l-66 25 -505 6 -505 5 -58 27 c-80 38
-158 115 -193 191 -26 55 -29 73 -29 162 0 88 3 106 27 155 30 62 90 128 147
164 88 56 85 56 850 56 784 0 787 1 918 65 96 47 185 136 236 234 l37 73 0
178 0 177 -36 72 c-62 124 -184 227 -331 279 -44 15 -163 17 -1468 19 -1294 3
-1423 1 -1453 -13z m2331 -2248 c101 -43 139 -172 78 -267 -83 -131 -291 -109
-347 36 -31 84 5 183 83 224 45 24 138 28 186 7z"/>
</g>
</svg>